<svg xmlns="http://www.w3.org/2000/svg" width="960" height="240" viewBox="0 0 960 240" role="img" aria-labelledby="title desc">
  <title id="title">Tokyo Movie Times logo</title>
  <desc id="desc">Tokyo Movie Times wordmark with a cinema route mark.</desc>
  <rect width="960" height="240" rx="32" fill="#f6f6f3"/>
  <g transform="translate(42 42) scale(.305)">
    <rect x="24" y="24" width="464" height="464" rx="112" fill="#1c1917"/>
    <path d="M80 418H432M80 94H238M334 94H432M80 160H178M80 222H132M380 286H432M330 350H432" stroke="#44403c" stroke-width="12" stroke-linecap="round" opacity=".38"/>
    <circle cx="368" cy="144" r="72" fill="#dc2626"/>
    <path d="M104 338C176 226 266 158 416 110" fill="none" stroke="#f6f6f3" stroke-width="48" stroke-linecap="round"/>
    <path d="M108 338C180 229 268 164 412 116" fill="none" stroke="#d6d3d1" stroke-width="18" stroke-linecap="round"/>
    <circle cx="170" cy="272" r="34" fill="#991b1b" stroke="#f6f6f3" stroke-width="14"/>
    <circle cx="274" cy="196" r="34" fill="#991b1b" stroke="#f6f6f3" stroke-width="14"/>
    <path d="M204 290L316 354L204 418Z" fill="#f6f6f3"/>
  </g>
  <g fill="#1c1917" font-family="Inter, ui-sans-serif, system-ui, -apple-system, BlinkMacSystemFont, Segoe UI, sans-serif">
    <text x="226" y="104" font-size="54" font-weight="800">Tokyo</text>
    <text x="226" y="165" font-size="54" font-weight="800">Movie Times</text>
  </g>
  <path d="M694 74H864" stroke="#991b1b" stroke-width="8" stroke-linecap="round"/>
  <circle cx="720" cy="74" r="12" fill="#f6f6f3" stroke="#991b1b" stroke-width="8"/>
  <circle cx="820" cy="74" r="12" fill="#f6f6f3" stroke="#991b1b" stroke-width="8"/>
  <text x="696" y="154" fill="#57534e" font-family="Inter, ui-sans-serif, system-ui, -apple-system, BlinkMacSystemFont, Segoe UI, sans-serif" font-size="25" font-weight="700">English-first Tokyo cinema planner</text>
</svg>
