<svg xmlns="http://www.w3.org/2000/svg" width="1200" height="630" viewBox="0 0 1200 630" role="img" aria-labelledby="title desc">
  <title id="title">Tokyo Movie Times social card</title>
  <desc id="desc">A branded Tokyo Movie Times preview card with a route-inspired cinema mark and showtime planning details.</desc>
  <rect width="1200" height="630" fill="#f6f6f3"/>
  <g stroke="#d6d3d1" stroke-width="4" opacity=".55">
    <path d="M-50 168H1250"/>
    <path d="M-50 312H1250"/>
    <path d="M-50 456H1250"/>
    <path d="M156 -40V680"/>
    <path d="M332 -40V680"/>
    <path d="M508 -40V680"/>
    <path d="M684 -40V680"/>
    <path d="M860 -40V680"/>
    <path d="M1036 -40V680"/>
  </g>
  <path d="M681 510C784 338 890 247 1082 188" fill="none" stroke="#1c1917" stroke-width="44" stroke-linecap="round" opacity=".12"/>
  <path d="M677 508C780 337 888 246 1080 188" fill="none" stroke="#991b1b" stroke-width="16" stroke-linecap="round"/>
  <circle cx="766" cy="380" r="24" fill="#f6f6f3" stroke="#991b1b" stroke-width="12"/>
  <circle cx="887" cy="278" r="24" fill="#f6f6f3" stroke="#991b1b" stroke-width="12"/>
  <circle cx="1018" cy="206" r="24" fill="#f6f6f3" stroke="#991b1b" stroke-width="12"/>
  <circle cx="1003" cy="120" r="92" fill="#dc2626"/>
  <rect x="72" y="64" width="565" height="502" rx="30" fill="#1c1917"/>
  <g transform="translate(112 104) scale(.172)">
    <rect x="24" y="24" width="464" height="464" rx="112" fill="#f6f6f3"/>
    <path d="M80 418H432M80 94H238M334 94H432M80 160H178M80 222H132M380 286H432M330 350H432" stroke="#d6d3d1" stroke-width="12" stroke-linecap="round" opacity=".75"/>
    <circle cx="368" cy="144" r="72" fill="#dc2626"/>
    <path d="M104 338C176 226 266 158 416 110" fill="none" stroke="#1c1917" stroke-width="48" stroke-linecap="round"/>
    <path d="M108 338C180 229 268 164 412 116" fill="none" stroke="#57534e" stroke-width="18" stroke-linecap="round"/>
    <circle cx="170" cy="272" r="34" fill="#991b1b" stroke="#f6f6f3" stroke-width="14"/>
    <circle cx="274" cy="196" r="34" fill="#991b1b" stroke="#f6f6f3" stroke-width="14"/>
    <path d="M204 290L316 354L204 418Z" fill="#1c1917"/>
  </g>
  <text x="214" y="145" fill="#f6f6f3" font-family="Inter, ui-sans-serif, system-ui, -apple-system, BlinkMacSystemFont, Segoe UI, sans-serif" font-size="30" font-weight="800">Tokyo Movie Times</text>
  <text x="112" y="260" fill="#ffffff" font-family="Inter, ui-sans-serif, system-ui, -apple-system, BlinkMacSystemFont, Segoe UI, sans-serif" font-size="72" font-weight="850">English-first</text>
  <text x="112" y="340" fill="#ffffff" font-family="Inter, ui-sans-serif, system-ui, -apple-system, BlinkMacSystemFont, Segoe UI, sans-serif" font-size="72" font-weight="850">cinema times</text>
  <text x="112" y="405" fill="#e7e5e4" font-family="Inter, ui-sans-serif, system-ui, -apple-system, BlinkMacSystemFont, Segoe UI, sans-serif" font-size="30" font-weight="650">Compare cinemas, movies, IMAX,</text>
  <text x="112" y="444" fill="#e7e5e4" font-family="Inter, ui-sans-serif, system-ui, -apple-system, BlinkMacSystemFont, Segoe UI, sans-serif" font-size="30" font-weight="650">languages, seats, and dates.</text>
  <g font-family="Inter, ui-sans-serif, system-ui, -apple-system, BlinkMacSystemFont, Segoe UI, sans-serif" font-size="22" font-weight="800">
    <rect x="112" y="492" width="126" height="44" rx="10" fill="#f6f6f3"/>
    <text x="132" y="522" fill="#1c1917">Cinemas</text>
    <rect x="256" y="492" width="112" height="44" rx="10" fill="#f6f6f3"/>
    <text x="282" y="522" fill="#1c1917">Movies</text>
    <rect x="386" y="492" width="92" height="44" rx="10" fill="#dc2626"/>
    <text x="410" y="522" fill="#ffffff">IMAX</text>
  </g>
  <g transform="translate(734 105)">
    <rect x="0" y="244" width="322" height="80" rx="18" fill="#ffffff" stroke="#d6d3d1" stroke-width="4"/>
    <text x="30" y="294" fill="#1c1917" font-family="Inter, ui-sans-serif, system-ui, -apple-system, BlinkMacSystemFont, Segoe UI, sans-serif" font-size="34" font-weight="850">19:40</text>
    <text x="144" y="294" fill="#57534e" font-family="Inter, ui-sans-serif, system-ui, -apple-system, BlinkMacSystemFont, Segoe UI, sans-serif" font-size="24" font-weight="700">Subtitled</text>
    <rect x="252" y="264" width="46" height="28" rx="6" fill="#ecfdf5" stroke="#047857" stroke-width="3"/>
    <text x="262" y="285" fill="#064e3b" font-family="Inter, ui-sans-serif, system-ui, -apple-system, BlinkMacSystemFont, Segoe UI, sans-serif" font-size="14" font-weight="900">OK</text>
    <rect x="42" y="56" width="120" height="178" rx="14" fill="#1c1917"/>
    <rect x="62" y="78" width="80" height="116" rx="8" fill="#dc2626"/>
    <path d="M88 121L121 140L88 159Z" fill="#ffffff"/>
    <rect x="188" y="16" width="120" height="178" rx="14" fill="#ffffff" stroke="#d6d3d1" stroke-width="4"/>
    <rect x="208" y="38" width="80" height="116" rx="8" fill="#292524"/>
    <path d="M237 81L270 100L237 119Z" fill="#f6f6f3"/>
  </g>
</svg>
